<svg xmlns="http://www.w3.org/2000/svg" viewBox="0 0 1277.7 462.86" width="1277.7" height="462.86" style="background-color: transparent;"><defs><style>@import url('https://fonts.googleapis.com/css2?family=Caveat+Brush&amp;family=Source+Code+Pro&amp;family=Source+Sans+Pro&amp;family=Crimson+Pro&amp;display=block');</style></defs><g id="8d6e1715-42ca-4bde-1802-ee59150d73f9_svg" class="tl-centered-g" transform="translate(16.00, 16.00) rotate(0.00, 622.85, 215.43)"><path d="M86.74,1.22 Q98.85,1.21 106.45,1.20 T122.05,1.19 138.14,1.18 154.35,1.17 170.60,1.16 186.85,1.14 203.11,1.13 219.37,1.12 235.63,1.11 251.88,1.10 268.14,1.09 284.40,1.07 300.66,1.06 316.92,1.05 333.18,1.04 349.43,1.03 365.69,1.01 381.95,1.00 398.21,0.99 414.47,0.98 430.73,0.97 446.98,0.96 463.24,0.94 479.50,0.93 495.76,0.92 512.02,0.91 528.27,0.90 544.53,0.88 560.79,0.87 577.05,0.86 593.31,0.85 609.57,0.84 625.82,0.83 642.08,0.81 658.34,0.80 674.60,0.79 690.86,0.78 707.12,0.77 723.37,0.75 739.63,0.74 755.89,0.73 772.15,0.72 788.41,0.71 804.66,0.70 820.92,0.68 837.18,0.67 853.44,0.66 869.70,0.65 885.96,0.64 902.21,0.62 918.47,0.61 934.73,0.60 950.99,0.59 967.25,0.58 983.51,0.56 999.76,0.55 1016.02,0.54 1032.28,0.53 1048.54,0.52 1064.80,0.51 1081.05,0.49 1097.31,0.48 1113.57,0.47 1129.83,0.46 1146.09,0.45 1162.35,0.43 1178.60,0.42 1194.86,0.41 1211.12,0.40 1227.38,0.39 1239.07,1.87 1243.53,10.01 1244.64,24.63 1244.91,40.90 1244.95,57.60 1244.94,74.40 1244.91,91.23 1244.88,108.06 1244.85,124.90 1244.82,141.74 1244.78,158.58 1244.75,175.41 1244.72,192.25 1244.69,209.09 1244.66,225.93 1244.63,242.77 1244.60,259.60 1244.56,276.44 1244.53,293.28 1244.50,310.12 1244.47,326.96 1244.44,343.79 1244.41,360.63 1244.37,377.47 1244.34,394.31 1244.31,411.15 1242.80,423.20 1234.87,427.77 1220.74,428.93 1205.03,429.22 1188.91,429.30 1172.69,429.32 1156.45,429.32 1140.19,429.32 1123.94,429.32 1107.69,429.32 1091.43,429.31 1075.18,429.31 1058.92,429.31 1042.67,429.31 1026.41,429.31 1010.16,429.31 993.91,429.30 977.65,429.30 961.40,429.30 945.14,429.30 928.89,429.30 912.63,429.30 896.38,429.29 880.12,429.29 863.87,429.29 847.62,429.29 831.36,429.29 815.11,429.29 798.85,429.28 782.60,429.28 766.34,429.28 750.09,429.28 733.83,429.28 717.58,429.28 701.33,429.28 685.07,429.27 668.82,429.27 652.56,429.27 636.31,429.27 620.05,429.27 603.80,429.27 587.54,429.26 571.29,429.26 555.04,429.26 538.78,429.26 522.53,429.26 506.27,429.26 490.02,429.25 473.76,429.25 457.51,429.25 441.25,429.25 425.00,429.25 408.75,429.25 392.49,429.24 376.24,429.24 359.98,429.24 343.73,429.24 327.47,429.24 311.22,429.24 294.96,429.23 278.71,429.23 262.46,429.23 246.20,429.23 229.95,429.23 213.69,429.23 197.44,429.22 181.18,429.22 164.93,429.22 148.67,429.22 132.42,429.22 116.17,429.22 99.91,429.22 83.66,429.21 67.40,429.21 51.15,429.21 34.89,429.21 18.64,429.21 6.95,427.72 2.49,419.59 1.36,405.00 1.09,388.77 1.04,372.12 1.04,355.36 1.05,338.57 1.07,321.77 1.09,304.98 1.11,288.18 1.13,271.38 1.15,254.58 1.17,237.79 1.19,220.99 1.21,204.19 1.23,187.40 1.25,170.60 1.27,153.80 1.29,137.00 1.31,120.21 1.33,103.41 1.35,86.61 1.37,69.82 1.39,53.02 1.41,36.22 1.43,19.42 2.93,7.39 10.86,2.83 25.00,1.66 40.71,1.35 56.83,1.27 73.06,1.23 89.31,1.22 105.56,1.20 121.82,1.19 138.08,1.18 154.34,1.17 170.59,1.16 186.85,1.14 203.11,1.13 219.37,1.12 235.63,1.11 251.88,1.10 268.14,1.09 284.40,1.07 300.66,1.06 316.92,1.05 333.18,1.04 349.43,1.03 365.69,1.01 381.95,1.00 398.21,0.99 414.47,0.98 430.73,0.97 446.98,0.96 463.24,0.94 479.50,0.93 495.76,0.92 512.02,0.91 528.27,0.90 544.53,0.88 560.79,0.87 577.05,0.86 593.31,0.85 609.57,0.84 625.82,0.83 644.86,0.81 " fill="#d2d2d2" pointer-events="none"/><path d="M86.74,-0.35 Q98.85,-0.34 106.45,-0.34 T122.04,-0.33 138.13,-0.32 154.35,-0.32 170.60,-0.31 186.85,-0.31 203.11,-0.30 219.37,-0.30 235.63,-0.29 251.88,-0.29 268.14,-0.28 284.40,-0.28 300.66,-0.27 316.92,-0.27 333.18,-0.26 349.43,-0.26 365.69,-0.25 381.95,-0.25 398.21,-0.24 414.47,-0.23 430.72,-0.23 446.98,-0.22 463.24,-0.22 479.50,-0.21 495.76,-0.21 512.02,-0.20 528.27,-0.20 544.53,-0.19 560.79,-0.19 577.05,-0.18 593.31,-0.18 609.57,-0.17 625.82,-0.18 642.08,-0.21 658.34,-0.24 674.60,-0.27 690.86,-0.30 707.11,-0.33 723.37,-0.36 739.63,-0.39 755.89,-0.41 772.15,-0.44 788.41,-0.47 804.66,-0.50 820.92,-0.53 837.18,-0.56 853.44,-0.59 869.70,-0.62 885.96,-0.65 902.21,-0.68 918.47,-0.70 934.73,-0.73 950.99,-0.76 967.25,-0.79 983.50,-0.82 999.76,-0.85 1016.02,-0.88 1032.28,-0.91 1048.54,-0.94 1064.80,-0.96 1081.05,-0.99 1097.31,-1.02 1113.57,-1.05 1129.83,-1.08 1146.09,-1.11 1162.35,-1.14 1178.60,-1.17 1194.86,-1.20 1211.12,-1.23 1227.40,-1.25 1239.66,0.61 1244.89,9.46 1246.21,24.50 1246.42,40.88 1246.42,57.59 1246.35,74.40 1246.27,91.23 1246.19,108.06 1246.11,124.90 1246.02,141.74 1245.94,158.58 1245.86,175.42 1245.77,192.25 1245.72,209.09 1245.71,225.93 1245.73,242.77 1245.75,259.61 1245.77,276.44 1245.79,293.28 1245.81,310.12 1245.83,326.96 1245.85,343.80 1245.87,360.64 1245.89,377.47 1245.92,394.31 1245.93,411.17 1244.07,423.79 1235.43,429.14 1220.88,430.54 1205.06,430.83 1188.92,430.89 1172.69,430.89 1156.45,430.87 1140.19,430.86 1123.94,430.84 1107.69,430.82 1091.43,430.80 1075.18,430.78 1058.92,430.76 1042.67,430.75 1026.41,430.73 1010.16,430.71 993.90,430.69 977.65,430.67 961.40,430.65 945.14,430.63 928.89,430.61 912.63,430.60 896.38,430.58 880.12,430.56 863.87,430.54 847.62,430.52 831.36,430.50 815.11,430.48 798.85,430.46 782.60,430.45 766.34,430.43 750.09,430.41 733.83,430.39 717.58,430.37 701.33,430.35 685.07,430.33 668.82,430.31 652.56,430.30 636.31,430.28 620.05,430.28 603.80,430.29 587.54,430.31 571.29,430.32 555.04,430.34 538.78,430.35 522.53,430.37 506.27,430.38 490.02,430.40 473.76,430.41 457.51,430.43 441.25,430.45 425.00,430.46 408.75,430.48 392.49,430.49 376.24,430.51 359.98,430.52 343.73,430.54 327.47,430.55 311.22,430.57 294.96,430.59 278.71,430.60 262.46,430.62 246.20,430.63 229.95,430.65 213.69,430.66 197.44,430.68 181.18,430.69 164.93,430.71 148.67,430.72 132.42,430.74 116.17,430.76 99.91,430.77 83.66,430.79 67.40,430.80 51.15,430.82 34.89,430.83 18.61,430.84 6.36,428.98 1.13,420.14 -0.20,405.13 -0.43,388.80 -0.43,372.12 -0.38,355.36 -0.31,338.57 -0.24,321.77 -0.17,304.97 -0.10,288.18 -0.03,271.38 0.05,254.58 0.12,237.79 0.16,220.99 0.16,204.19 0.13,187.40 0.09,170.60 0.06,153.80 0.03,137.00 -0.00,120.21 -0.03,103.41 -0.07,86.61 -0.10,69.81 -0.13,53.02 -0.16,36.22 -0.19,19.40 1.67,6.81 10.30,1.46 24.85,0.04 40.68,-0.25 56.82,-0.32 73.05,-0.34 89.30,-0.34 105.56,-0.33 121.82,-0.33 138.08,-0.32 154.33,-0.32 170.59,-0.31 186.85,-0.31 203.11,-0.30 219.37,-0.30 235.63,-0.29 251.88,-0.29 268.14,-0.28 284.40,-0.28 300.66,-0.27 316.92,-0.27 333.18,-0.26 349.43,-0.26 365.69,-0.25 381.95,-0.25 398.21,-0.24 414.47,-0.23 430.72,-0.23 446.98,-0.22 463.24,-0.22 479.50,-0.21 495.76,-0.21 512.02,-0.20 528.27,-0.20 544.53,-0.19 560.79,-0.19 577.05,-0.18 593.31,-0.18 609.57,-0.17 625.82,-0.18 644.86,-0.21 655.94,-0.20 656.25,-0.10 656.52,0.10 656.70,0.37 656.79,0.69 656.77,1.02 656.65,1.33 656.44,1.58 656.15,1.75 655.83,1.82 655.50,1.79 655.20,1.65 654.96,1.42 654.81,1.13 654.76,0.80 654.81,0.48 654.96,0.19 655.20,-0.04 655.50,-0.18 655.83,-0.22 656.15,-0.14 656.44,0.03 656.65,0.28 656.77,0.58 656.79,0.91 656.70,1.23 656.52,1.51 656.26,1.71 655.94,1.81 655.78,1.84 644.87,1.84 625.83,1.83 609.57,1.85 593.31,1.87 577.05,1.90 560.79,1.93 544.53,1.96 528.28,1.99 512.02,2.02 495.76,2.05 479.50,2.08 463.24,2.11 446.98,2.14 430.73,2.16 414.47,2.19 398.21,2.22 381.95,2.25 365.69,2.28 349.44,2.31 333.18,2.34 316.92,2.37 300.66,2.40 284.40,2.42 268.14,2.45 251.89,2.48 235.63,2.51 219.37,2.54 203.11,2.57 186.85,2.60 170.59,2.63 154.34,2.66 138.08,2.69 121.82,2.71 105.56,2.74 89.31,2.77 73.06,2.81 56.84,2.86 40.75,2.96 25.14,3.28 11.42,4.20 4.20,7.98 3.05,19.45 2.98,36.22 2.91,53.02 2.84,69.82 2.77,86.62 2.69,103.41 2.62,120.21 2.55,137.01 2.48,153.80 2.41,170.60 2.33,187.40 2.26,204.19 2.22,220.99 2.22,237.79 2.25,254.59 2.29,271.38 2.32,288.18 2.35,304.98 2.38,321.77 2.42,338.57 2.45,355.36 2.50,372.11 2.61,388.74 2.93,404.87 3.84,419.04 7.54,426.46 18.66,427.57 34.89,427.58 51.15,427.60 67.40,427.62 83.66,427.64 99.91,427.66 116.17,427.68 132.42,427.70 148.67,427.72 164.93,427.73 181.18,427.75 197.44,427.77 213.69,427.79 229.95,427.81 246.20,427.83 262.46,427.85 278.71,427.87 294.96,427.88 311.22,427.90 327.47,427.92 343.73,427.94 359.98,427.96 376.24,427.98 392.49,428.00 408.75,428.01 425.00,428.03 441.25,428.05 457.51,428.07 473.76,428.09 490.02,428.11 506.27,428.13 522.53,428.15 538.78,428.16 555.04,428.18 571.29,428.20 587.54,428.22 603.80,428.24 620.05,428.26 636.31,428.26 652.56,428.24 668.82,428.23 685.07,428.21 701.33,428.20 717.58,428.18 733.83,428.17 750.09,428.15 766.34,428.14 782.60,428.12 798.85,428.11 815.11,428.09 831.36,428.07 847.62,428.06 863.87,428.04 880.12,428.03 896.38,428.01 912.63,428.00 928.89,427.98 945.14,427.97 961.40,427.95 977.65,427.93 993.91,427.92 1010.16,427.90 1026.41,427.89 1042.67,427.87 1058.92,427.86 1075.18,427.84 1091.43,427.83 1107.69,427.81 1123.94,427.80 1140.19,427.78 1156.45,427.76 1172.69,427.74 1188.90,427.71 1205.00,427.62 1220.60,427.31 1234.31,426.40 1241.54,422.62 1242.69,411.12 1242.77,394.31 1242.85,377.47 1242.94,360.63 1243.02,343.79 1243.11,326.95 1243.19,310.12 1243.27,293.28 1243.36,276.44 1243.44,259.60 1243.52,242.76 1243.61,225.93 1243.66,209.09 1243.67,192.25 1243.65,175.41 1243.63,158.57 1243.61,141.74 1243.59,124.90 1243.57,108.06 1243.54,91.22 1243.52,74.40 1243.48,57.60 1243.39,40.93 1243.08,24.76 1242.17,10.56 1238.48,3.13 1227.36,2.02 1211.12,2.02 1194.86,2.02 1178.61,2.01 1162.35,2.01 1146.09,2.00 1129.83,2.00 1113.57,1.99 1097.31,1.99 1081.06,1.98 1064.80,1.98 1048.54,1.97 1032.28,1.97 1016.02,1.96 999.76,1.96 983.51,1.95 967.25,1.94 950.99,1.94 934.73,1.93 918.47,1.93 902.22,1.92 885.96,1.92 869.70,1.91 853.44,1.91 837.18,1.90 820.92,1.90 804.67,1.89 788.41,1.89 772.15,1.88 755.89,1.88 739.63,1.87 723.37,1.87 707.12,1.86 690.86,1.85 674.60,1.85 658.34,1.84 642.08,1.84 625.83,1.83 609.57,1.85 593.31,1.87 577.05,1.90 560.79,1.93 544.53,1.96 528.28,1.99 512.02,2.02 495.76,2.05 479.50,2.08 463.24,2.11 446.98,2.14 430.73,2.16 414.47,2.19 398.21,2.22 381.95,2.25 365.69,2.28 349.44,2.31 333.18,2.34 316.92,2.37 300.66,2.40 284.40,2.42 268.14,2.45 251.89,2.48 235.63,2.51 219.37,2.54 203.11,2.57 186.85,2.60 170.60,2.63 154.35,2.66 138.14,2.69 122.05,2.71 106.45,2.74 92.80,2.77 86.55,2.76 86.19,2.67 85.86,2.50 85.58,2.25 85.36,1.94 85.23,1.59 85.19,1.22 85.23,0.85 85.36,0.50 85.58,0.19 85.86,-0.06 86.19,-0.23 86.55,-0.32 Z" fill="#1d1d1d" stroke="#1d1d1d" stroke-width="2" pointer-events="none"/></g><g id="77032133-097b-4e5b-3594-4ffaac0c91fb_svg" class="tl-centered-g" transform="translate(532.64, 48.48) rotate(0.00, 227.93, 181.63)"><path d="M367.61,362.56 Q355.31,362.57 347.60,362.57 T331.77,362.58 315.43,362.58 298.97,362.59 282.48,362.60 265.98,362.60 249.48,362.61 232.97,362.62 216.47,362.62 199.96,362.63 183.46,362.64 166.96,362.64 150.45,362.65 133.95,362.66 117.44,362.66 100.94,362.67 84.44,362.68 67.93,362.69 51.43,362.69 34.92,362.70 18.42,362.71 6.57,361.22 2.06,353.08 0.91,338.48 0.62,322.22 0.55,305.54 0.53,288.75 0.53,271.93 0.53,255.11 0.53,238.29 0.53,221.47 0.54,204.64 0.54,187.82 0.54,170.99 0.54,154.17 0.54,137.35 0.54,120.52 0.55,103.70 0.55,86.87 0.55,70.05 0.55,53.23 0.55,36.40 0.55,19.58 2.05,7.53 10.07,2.97 24.43,1.80 40.40,1.49 56.79,1.40 73.28,1.38 89.79,1.36 106.31,1.35 122.84,1.34 139.36,1.33 155.89,1.32 172.41,1.31 188.94,1.30 205.47,1.29 221.99,1.28 238.52,1.27 255.04,1.26 271.57,1.26 288.09,1.25 304.62,1.24 321.14,1.23 337.67,1.22 354.19,1.21 370.72,1.20 387.24,1.19 403.77,1.18 420.29,1.17 436.82,1.16 448.68,2.64 453.18,10.78 454.31,25.39 454.57,41.65 454.62,58.34 454.61,75.13 454.59,91.95 454.56,108.77 454.53,125.60 454.50,142.43 454.47,159.25 454.44,176.08 454.41,192.91 454.38,209.74 454.36,226.56 454.33,243.39 454.30,260.22 454.27,277.04 454.24,293.87 454.21,310.70 454.18,327.53 454.15,344.35 452.64,356.40 444.62,360.97 430.28,362.14 414.33,362.44 397.97,362.52 381.50,362.55 365.00,362.56 348.50,362.57 332.00,362.58 315.49,362.58 298.99,362.59 282.48,362.60 265.98,362.60 249.48,362.61 232.97,362.62 216.47,362.62 197.14,362.63 " fill="#f1f2f3" pointer-events="none"/><path d="M367.61,363.97 Q355.31,363.93 347.60,363.91 T331.77,363.87 315.43,363.82 298.97,363.78 282.48,363.74 265.98,363.70 249.48,363.66 232.97,363.64 216.47,363.67 199.97,363.73 183.46,363.78 166.96,363.84 150.45,363.89 133.95,363.95 117.44,364.00 100.94,364.06 84.44,364.11 67.93,364.17 51.43,364.22 34.92,364.28 18.40,364.33 5.99,362.48 0.71,353.63 -0.63,338.61 -0.87,322.24 -0.88,305.54 -0.84,288.75 -0.78,271.94 -0.72,255.11 -0.65,238.29 -0.59,221.47 -0.53,204.64 -0.49,187.82 -0.52,170.99 -0.58,154.17 -0.64,137.35 -0.70,120.52 -0.76,103.70 -0.82,86.87 -0.88,70.05 -0.94,53.23 -1.00,36.40 -1.06,19.56 0.78,6.95 9.52,1.61 24.29,0.23 40.37,-0.04 56.78,-0.08 73.27,-0.06 89.79,-0.02 106.31,0.01 122.84,0.05 139.36,0.09 155.89,0.13 172.41,0.17 188.94,0.21 205.46,0.25 221.99,0.26 238.52,0.23 255.04,0.17 271.57,0.11 288.09,0.05 304.62,-0.00 321.14,-0.06 337.67,-0.12 354.19,-0.18 370.72,-0.24 387.24,-0.29 403.77,-0.35 420.29,-0.41 436.84,-0.46 449.27,1.38 454.53,10.23 455.86,25.26 456.07,41.63 456.05,58.33 455.98,75.13 455.90,91.95 455.81,108.77 455.72,125.60 455.62,142.43 455.53,159.25 455.47,176.08 455.48,192.91 455.51,209.74 455.54,226.56 455.57,243.39 455.61,260.22 455.64,277.05 455.67,293.87 455.71,310.70 455.74,327.53 455.77,344.38 453.91,356.99 445.18,362.32 430.42,363.71 414.36,363.97 397.97,364.00 381.50,363.98 365.00,363.95 348.50,363.91 332.00,363.87 315.49,363.82 298.99,363.78 282.49,363.74 265.98,363.70 249.48,363.66 232.97,363.64 216.47,363.67 197.14,363.73 185.89,363.73 185.55,363.61 185.26,363.40 185.06,363.10 184.96,362.76 184.98,362.40 185.12,362.07 185.35,361.79 185.65,361.61 186.00,361.53 186.36,361.57 186.68,361.72 186.94,361.97 187.11,362.28 187.17,362.64 187.11,362.99 186.94,363.31 186.68,363.55 186.36,363.70 186.00,363.74 185.65,363.66 185.35,363.48 185.12,363.21 184.98,362.87 184.96,362.52 185.06,362.17 185.26,361.88 185.55,361.66 185.88,361.55 186.06,361.52 197.14,361.54 216.47,361.58 232.97,361.59 249.48,361.56 265.98,361.51 282.48,361.45 298.99,361.40 315.49,361.34 332.00,361.29 348.50,361.23 365.00,361.18 381.49,361.12 397.96,361.04 414.30,360.91 430.15,360.57 444.07,359.61 451.38,355.82 452.54,344.33 452.62,327.52 452.72,310.70 452.81,293.87 452.90,277.04 452.99,260.22 453.08,243.39 453.17,226.56 453.26,209.73 453.35,192.91 453.41,176.08 453.41,159.25 453.38,142.42 453.34,125.60 453.31,108.77 453.28,91.94 453.24,75.13 453.19,58.34 453.08,41.68 452.76,25.52 451.83,11.33 448.09,3.90 436.80,2.78 420.29,2.75 403.77,2.71 387.24,2.67 370.72,2.63 354.19,2.59 337.67,2.55 321.14,2.52 304.62,2.48 288.09,2.44 271.57,2.40 255.04,2.36 238.52,2.32 221.99,2.31 205.47,2.34 188.94,2.40 172.42,2.46 155.89,2.51 139.37,2.57 122.84,2.63 106.32,2.69 89.79,2.75 73.28,2.81 56.79,2.89 40.43,3.02 24.57,3.36 10.63,4.32 3.31,8.12 2.17,19.60 2.11,36.40 2.05,53.23 1.98,70.05 1.92,86.88 1.86,103.70 1.79,120.52 1.73,137.35 1.66,154.17 1.60,170.99 1.57,187.82 1.60,204.64 1.66,221.47 1.72,238.29 1.78,255.11 1.84,271.93 1.90,288.75 1.98,305.53 2.12,322.19 2.46,338.35 3.41,352.54 7.16,359.96 18.44,361.08 34.92,361.12 51.43,361.16 67.93,361.20 84.44,361.24 100.94,361.29 117.44,361.33 133.95,361.37 150.45,361.41 166.96,361.45 183.46,361.49 199.96,361.53 216.47,361.58 232.97,361.59 249.48,361.56 265.98,361.51 282.48,361.45 298.97,361.40 315.43,361.34 331.77,361.29 347.60,361.23 361.46,361.18 367.78,361.17 368.10,361.25 368.40,361.41 368.66,361.63 368.85,361.91 368.97,362.23 369.01,362.56 368.97,362.90 368.85,363.21 368.66,363.49 368.40,363.71 368.10,363.87 367.78,363.95 Z" fill="#c6cbd1" stroke="#c6cbd1" stroke-width="2" pointer-events="none"/></g><text font-size="28px" font-family="Source Sans Pro" font-weight="normal" line-height="28px" letter-spacing="-0.03em" text-align="left" dominant-baseline="mathematical" alignment-baseline="mathematical" text-anchor="start" fill="#1d1d1d" transform="translate(102.93, 211.37) rotate(0.00, 51.00, 19.00)"><tspan y="14px" x="4">Einlesen
</tspan></text><text font-size="28px" font-family="Source Sans Pro" font-weight="normal" line-height="28px" letter-spacing="-0.03em" text-align="left" dominant-baseline="mathematical" alignment-baseline="mathematical" text-anchor="start" fill="#1d1d1d" transform="translate(308.64, 208.48) rotate(0.00, 68.50, 19.00)"><tspan y="14px" x="4">Aufbereiten
</tspan></text><text font-size="28px" font-family="Source Sans Pro" font-weight="normal" line-height="28px" letter-spacing="-0.03em" text-align="left" dominant-baseline="mathematical" alignment-baseline="mathematical" text-anchor="start" fill="#1d1d1d" transform="translate(564.64, 208.48) rotate(0.00, 89.00, 19.00)"><tspan y="14px" x="4">Transformieren
</tspan></text><text font-size="28px" font-family="Source Sans Pro" font-weight="normal" line-height="28px" letter-spacing="-0.03em" text-align="left" dominant-baseline="mathematical" alignment-baseline="mathematical" text-anchor="start" fill="#1d1d1d" transform="translate(756.64, 112.48) rotate(0.00, 73.50, 19.00)"><tspan y="14px" x="4">Visualisieren
</tspan></text><text font-size="28px" font-family="Source Sans Pro" font-weight="normal" line-height="28px" letter-spacing="-0.03em" text-align="left" dominant-baseline="mathematical" alignment-baseline="mathematical" text-anchor="start" fill="#1d1d1d" transform="translate(724.64, 336.48) rotate(0.00, 69.50, 19.00)"><tspan y="14px" x="4">Modellieren
</tspan></text><text font-size="28px" font-family="Source Sans Pro" font-weight="normal" line-height="28px" letter-spacing="-0.03em" text-align="left" dominant-baseline="mathematical" alignment-baseline="mathematical" text-anchor="start" fill="#1d1d1d" transform="translate(1044.64, 208.48) rotate(0.00, 92.50, 19.00)"><tspan y="14px" x="4">Kommunizieren
</tspan></text><g id="c52721b3-5196-4725-30b7-2b5119ac3d5d_svg" class="tl-centered-g" transform="translate(210.12, 229.73) rotate(0.00, 43.73, 0.50)"><defs><mask id="c52721b3-5196-4725-30b7-2b5119ac3d5d_clip"><rect x="-100" y="-100" width="287.47" height="201" fill="white"/><rect x="43.73" y="0.35" width="0" height="0" rx="2.73" ry="2.73" fill="black" opacity="1"/></mask></defs><g pointer-events="none" opacity="1" mask=""><path d="M-0.01,-0.27 Q21.36,-0.37 32.04,-0.43 T53.41,-0.55 74.78,-0.69 85.59,-0.74 85.82,-0.66 86.02,-0.52 86.16,-0.31 86.23,-0.07 86.22,0.17 86.13,0.41 85.97,0.60 85.76,0.73 85.52,0.78 85.27,0.76 85.05,0.65 84.86,0.48 84.75,0.27 84.70,0.02 84.74,-0.22 84.86,-0.44 85.04,-0.61 85.26,-0.72 85.51,-0.75 85.75,-0.70 85.96,-0.57 86.12,-0.38 86.22,-0.15 86.23,0.09 86.17,0.33 86.03,0.54 85.83,0.69 85.60,0.77 85.48,0.79 74.79,0.89 53.43,1.09 32.06,1.30 10.69,1.53 -0.11,1.64 -0.33,1.58 -0.54,1.48 -0.71,1.33 -0.84,1.14 -0.92,0.93 -0.95,0.70 -0.93,0.47 -0.85,0.25 -0.72,0.06 -0.55,-0.09 -0.34,-0.20 -0.12,-0.26 Z" fill="#1d1d1d" stroke="#1d1d1d" stroke-width="2.11" stroke-dasharray="none" stroke-dashoffset="none" stroke-linecap="round" stroke-linejoin="round" pointer-events="stroke"/><g><path d="M 73.55,-7.890449365298899 L 87.47,0 73.67,8.109052840712982" fill="none" stroke="#1d1d1d" stroke-width="4.23" stroke-linecap="round" stroke-linejoin="round" pointer-events="none"/></g></g></g><g id="abba6c6a-b4c2-44c6-3502-fea9e2144433_svg" class="tl-centered-g" transform="translate(446.19, 227.88) rotate(0.00, 55.23, 0.50)"><defs><mask id="abba6c6a-b4c2-44c6-3502-fea9e2144433_clip"><rect x="-100" y="-100" width="310.45" height="201" fill="white"/><rect x="55.22" y="0.22" width="0" height="0" rx="3.45" ry="3.45" fill="black" opacity="1"/></mask></defs><g pointer-events="none" opacity="1" mask=""><path d="M-0.00,-0.43 Q27.11,-0.46 40.67,-0.49 T67.78,-0.55 94.89,-0.62 108.55,-0.64 108.76,-0.57 108.93,-0.45 109.05,-0.27 109.10,-0.07 109.09,0.15 109.02,0.35 108.88,0.51 108.70,0.62 108.49,0.67 108.28,0.64 108.08,0.55 107.93,0.41 107.83,0.22 107.79,0.01 107.83,-0.20 107.92,-0.39 108.08,-0.54 108.27,-0.63 108.48,-0.65 108.69,-0.60 108.87,-0.50 109.01,-0.33 109.09,-0.14 109.10,0.08 109.05,0.28 108.93,0.46 108.76,0.59 108.56,0.66 108.45,0.68 94.90,0.75 67.78,0.90 40.67,1.06 13.56,1.24 -0.10,1.32 -0.31,1.27 -0.49,1.17 -0.65,1.03 -0.77,0.86 -0.85,0.66 -0.88,0.45 -0.85,0.24 -0.78,0.05 -0.66,-0.13 -0.50,-0.27 -0.31,-0.37 -0.11,-0.42 Z" fill="#1d1d1d" stroke="#1d1d1d" stroke-width="2.11" stroke-dasharray="none" stroke-dashoffset="none" stroke-linecap="round" stroke-linejoin="round" pointer-events="stroke"/><g><path d="M 96.56,-7.943479722048242 L 110.45,0 96.62,8.056387484039044" fill="none" stroke="#1d1d1d" stroke-width="4.23" stroke-linecap="round" stroke-linejoin="round" pointer-events="none"/></g></g></g><g id="e05c536a-518f-420d-06ea-a22dc7a1f454_svg" class="tl-centered-g" transform="translate(632.19, 127.53) rotate(0.00, 49.12, 31.44)"><defs><mask id="e05c536a-518f-420d-06ea-a22dc7a1f454_clip"><rect x="-100" y="-100" width="298.24" height="262.88" fill="white"/><rect x="34.95" y="9.93" width="0" height="0" rx="4" ry="4" fill="black" opacity="1"/></mask></defs><g pointer-events="none" opacity="1" mask=""><path d="M-1.72,62.58 Q-1.11,56.13 -0.05,52.29 T3.05,43.56 8.41,33.26 16.48,22.59 27.19,12.86 39.90,5.21 53.54,0.31 66.78,-1.82 78.44,-1.72 87.67,-0.34 94.80,1.59 98.32,2.83 98.88,3.29 99.26,3.89 99.43,4.59 99.37,5.31 99.08,5.97 98.60,6.50 97.97,6.85 97.27,6.98 96.56,6.88 95.91,6.56 95.41,6.05 95.09,5.40 95.00,4.69 95.14,3.98 95.50,3.36 96.03,2.88 96.69,2.60 97.41,2.55 98.11,2.73 98.71,3.12 99.16,3.68 99.40,4.35 99.42,5.07 99.20,5.76 98.78,6.34 98.20,6.75 97.51,6.96 96.79,6.94 96.43,6.87 93.52,5.90 86.96,4.09 78.36,2.76 67.44,2.61 55.01,4.53 42.19,9.07 30.18,16.19 20.05,25.29 12.40,35.32 7.29,45.03 4.34,53.28 2.52,60.04 1.65,63.38 1.49,63.76 1.23,64.09 0.91,64.35 0.53,64.53 0.12,64.60 -0.30,64.58 -0.70,64.46 -1.05,64.25 -1.35,63.96 -1.57,63.60 -1.70,63.21 -1.73,62.79 Z" fill="#1d1d1d" stroke="#1d1d1d" stroke-width="0" stroke-dasharray="none" stroke-dashoffset="none" stroke-linecap="round" stroke-linejoin="round" pointer-events="none"/><g><path d="M 87.50,-6.7085902128225605 L 98.24,5.16 82.59,8.51830543219304" fill="none" stroke="#1d1d1d" stroke-width="4.23" stroke-linecap="round" stroke-linejoin="round" pointer-events="none"/></g></g></g><g id="aaf3bde7-b235-4e08-33d8-134a043833e5_svg" class="tl-centered-g" transform="translate(879.71, 179.36) rotate(0.00, 34.43, 78.72)"><defs><mask id="aaf3bde7-b235-4e08-33d8-134a043833e5_clip"><rect x="-100" y="-100" width="268.85" height="357.44" fill="white"/><rect x="66.47" y="90.11" width="0" height="0" rx="4" ry="4" fill="black" opacity="1"/></mask></defs><g pointer-events="none" opacity="1" mask=""><path d="M38.80,-1.26 Q42.37,1.28 44.50,3.45 T49.81,9.50 56.94,19.73 64.58,35.85 69.69,59.41 67.35,89.51 56.26,117.66 41.26,136.68 27.22,147.88 16.23,153.99 8.72,157.10 3.63,158.76 1.08,159.42 0.36,159.37 -0.30,159.09 -0.84,158.61 -1.19,157.99 -1.33,157.28 -1.24,156.57 -0.92,155.92 -0.41,155.41 0.23,155.09 0.94,154.99 1.65,155.12 2.27,155.47 2.76,156.01 3.04,156.67 3.10,157.38 2.93,158.08 2.55,158.69 1.99,159.14 1.32,159.39 0.60,159.41 -0.09,159.20 -0.67,158.79 -1.10,158.21 -1.31,157.52 -1.29,156.80 -1.05,156.13 -0.60,155.56 0.00,155.17 0.34,155.03 2.33,154.45 7.05,152.93 14.12,150.02 24.51,144.32 37.84,133.83 52.18,115.90 62.94,89.15 65.35,60.36 60.55,37.80 53.28,22.34 46.47,12.50 41.37,6.69 37.91,2.93 36.35,1.11 36.12,0.77 35.98,0.38 35.94,-0.03 35.99,-0.43 36.15,-0.82 36.38,-1.15 36.70,-1.42 37.06,-1.60 37.46,-1.69 37.87,-1.69 38.27,-1.58 38.63,-1.39 Z" fill="#1d1d1d" stroke="#1d1d1d" stroke-width="0" stroke-dasharray="none" stroke-dashoffset="none" stroke-linecap="round" stroke-linejoin="round" pointer-events="none"/><g><path d="M 15.60,160.96475847559623 L 0,157.44 10.85,145.6863865525924" fill="none" stroke="#1d1d1d" stroke-width="4.23" stroke-linecap="round" stroke-linejoin="round" pointer-events="none"/></g></g></g><g id="b4eddc03-9feb-4763-29cc-d655e876e560_svg" class="tl-centered-g" transform="translate(623.85, 262.91) rotate(0.00, 37.97, 44.50)"><defs><mask id="b4eddc03-9feb-4763-29cc-d655e876e560_clip"><rect x="-100" y="-100" width="275.94" height="288.99" fill="white"/><rect x="13.56" y="65.65" width="0" height="0" rx="4" ry="4" fill="black" opacity="1"/></mask></defs><g pointer-events="none" opacity="1" mask=""><path d="M76.24,89.08 Q70.45,90.70 66.73,90.97 T58.02,90.92 47.16,89.20 35.10,84.91 23.12,77.57 12.59,67.33 4.65,54.96 -0.15,41.73 -1.93,29.01 -1.43,17.96 0.30,9.35 2.51,2.81 3.89,-0.42 4.37,-0.94 5.00,-1.29 5.71,-1.41 6.42,-1.31 7.06,-0.98 7.56,-0.46 7.87,0.19 7.96,0.90 7.81,1.60 7.45,2.22 6.91,2.69 6.24,2.97 5.53,3.02 4.83,2.83 4.23,2.44 3.79,1.87 3.55,1.19 3.54,0.47 3.77,-0.21 4.19,-0.79 4.78,-1.20 5.47,-1.40 6.19,-1.37 6.86,-1.11 7.41,-0.65 7.79,-0.04 7.96,0.66 7.89,1.37 7.79,1.73 6.72,4.35 4.68,10.30 3.04,18.22 2.51,28.44 4.08,40.25 8.44,52.58 15.74,64.15 25.47,73.78 36.61,80.70 47.86,84.77 58.02,86.44 66.18,86.51 72.66,86.02 75.86,85.77 76.26,85.80 76.64,85.92 76.98,86.13 77.26,86.41 77.47,86.76 77.59,87.14 77.61,87.54 77.53,87.93 77.37,88.30 77.12,88.61 76.80,88.86 76.44,89.02 Z" fill="#1d1d1d" stroke="#1d1d1d" stroke-width="0" stroke-dasharray="none" stroke-dashoffset="none" stroke-linecap="round" stroke-linejoin="round" pointer-events="none"/><g><path d="M -6.335103812698037,10.043425163504473 L 6.12,0 8.59,15.808148890321156" fill="none" stroke="#1d1d1d" stroke-width="4.23" stroke-linecap="round" stroke-linejoin="round" pointer-events="none"/></g></g></g><g id="10b588fc-0ec3-4c92-097d-82374ac40f8d_svg" class="tl-centered-g" transform="translate(988.50, 229.09) rotate(0.00, 22.82, 0.50)"><defs><mask id="10b588fc-0ec3-4c92-097d-82374ac40f8d_clip"><rect x="-100" y="-100" width="245.63" height="201" fill="white"/><rect x="22.81" y="0.08" width="0" height="0" rx="2" ry="2" fill="black" opacity="1"/></mask></defs><g pointer-events="none" opacity="1" mask=""><path d="M-0.00,-0.76 Q10.90,-0.73 16.36,-0.72 T27.27,-0.72 38.17,-0.72 43.74,-0.71 43.97,-0.63 44.15,-0.49 44.29,-0.30 44.35,-0.07 44.34,0.16 44.25,0.38 44.10,0.56 43.90,0.68 43.67,0.73 43.44,0.71 43.23,0.61 43.05,0.45 42.94,0.24 42.90,0.01 42.94,-0.22 43.05,-0.43 43.22,-0.59 43.43,-0.69 43.67,-0.72 43.90,-0.67 44.10,-0.55 44.25,-0.37 44.34,-0.15 44.35,0.08 44.29,0.31 44.16,0.50 43.97,0.65 43.75,0.72 43.63,0.74 38.18,0.78 27.27,0.85 16.36,0.94 5.46,1.04 -0.11,1.09 -0.32,1.03 -0.52,0.93 -0.69,0.78 -0.82,0.60 -0.90,0.39 -0.92,0.17 -0.90,-0.05 -0.82,-0.26 -0.69,-0.44 -0.53,-0.59 -0.33,-0.69 -0.11,-0.75 Z" fill="#1d1d1d" stroke="#1d1d1d" stroke-width="2.11" stroke-dasharray="none" stroke-dashoffset="none" stroke-linecap="round" stroke-linejoin="round" pointer-events="stroke"/><g><path d="M 32.42,-7.555925227118881 L 45.63,0 32.48,7.654074772881118" fill="none" stroke="#1d1d1d" stroke-width="4.23" stroke-linecap="round" stroke-linejoin="round" pointer-events="none"/></g></g></g><text font-size="28px" font-family="Source Sans Pro" font-weight="normal" line-height="28px" letter-spacing="-0.03em" text-align="left" dominant-baseline="mathematical" alignment-baseline="mathematical" text-anchor="start" fill="#788492" transform="translate(57.87, 114.29) rotate(0.00, 95.50, 19.00)"><tspan y="14px" x="4">Problemstellung
</tspan></text><text font-size="28px" font-family="Source Sans Pro" font-weight="normal" line-height="28px" letter-spacing="-0.03em" text-align="left" dominant-baseline="mathematical" alignment-baseline="mathematical" text-anchor="start" fill="#c6cbd1" transform="translate(541.42, 54.73) rotate(0.00, 110.00, 19.00)"><tspan y="14px" x="4">Explorative Analyse
</tspan></text><g id="8bba0cf1-49f6-4d0e-2db7-ad403cd3286b_svg" class="tl-centered-g" transform="translate(153.11, 152.29) rotate(0.00, 0.50, 27.93)"><defs><mask id="8bba0cf1-49f6-4d0e-2db7-ad403cd3286b_clip"><rect x="-100" y="-100" width="201" height="255.87" fill="white"/><rect x="0.09" y="27.93" width="0" height="0" rx="2" ry="2" fill="black" opacity="1"/></mask></defs><g pointer-events="none" opacity="1" mask=""><path d="M1.18,0.00 Q1.08,13.47 1.03,20.20 T0.94,33.67 0.87,47.14 0.81,54.00 0.72,54.25 0.56,54.46 0.35,54.61 0.09,54.68 -0.17,54.66 -0.41,54.57 -0.61,54.39 -0.75,54.17 -0.81,53.91 -0.78,53.65 -0.66,53.41 -0.48,53.22 -0.25,53.10 0.01,53.06 0.27,53.10 0.50,53.22 0.68,53.42 0.79,53.66 0.82,53.92 0.76,54.17 0.62,54.40 0.42,54.57 0.18,54.66 -0.08,54.68 -0.34,54.61 -0.55,54.46 -0.71,54.25 -0.80,54.00 -0.82,53.87 -0.81,47.13 -0.79,33.67 -0.79,20.20 -0.80,6.73 -0.79,-0.12 -0.73,-0.35 -0.62,-0.56 -0.46,-0.74 -0.27,-0.88 -0.04,-0.96 0.19,-0.99 0.43,-0.96 0.65,-0.87 0.85,-0.74 1.00,-0.56 1.11,-0.35 1.17,-0.12 Z" fill="#1d1d1d" stroke="#1d1d1d" stroke-width="2.11" stroke-dasharray="none" stroke-dashoffset="none" stroke-linecap="round" stroke-linejoin="round" pointer-events="stroke"/><g><path d="M 8.04,42.040879520845344 L 0,55.87 -7.952831813984072,41.98646780756126" fill="none" stroke="#1d1d1d" stroke-width="4.23" stroke-linecap="round" stroke-linejoin="round" pointer-events="none"/></g></g></g></svg>