<svg xmlns="http://www.w3.org/2000/svg" viewBox="0 0 1223.31 502.65" width="1223.31" height="502.65" style="background-color: transparent;"><defs><style>@import url('https://fonts.googleapis.com/css2?family=Caveat+Brush&amp;family=Source+Code+Pro&amp;family=Source+Sans+Pro&amp;family=Crimson+Pro&amp;display=block');</style></defs><g id="8d6e1715-42ca-4bde-1802-ee59150d73f9_svg" class="tl-centered-g" transform="translate(16.00, 55.79) rotate(0.00, 595.65, 215.43)"><path d="M86.35,1.22 Q98.41,1.21 105.97,1.20 T121.49,1.19 137.51,1.18 153.65,1.16 169.82,1.15 185.99,1.14 202.18,1.13 218.36,1.11 234.54,1.10 250.72,1.09 266.90,1.08 283.08,1.07 299.26,1.05 315.44,1.04 331.63,1.03 347.81,1.02 363.99,1.00 380.17,0.99 396.35,0.98 412.53,0.97 428.71,0.95 444.89,0.94 461.08,0.93 477.26,0.92 493.44,0.91 509.62,0.89 525.80,0.88 541.98,0.87 558.16,0.86 574.35,0.84 590.53,0.83 606.71,0.82 622.89,0.81 639.07,0.79 655.25,0.78 671.43,0.77 687.61,0.76 703.80,0.75 719.98,0.73 736.16,0.72 752.34,0.71 768.52,0.70 784.70,0.68 800.88,0.67 817.06,0.66 833.25,0.65 849.43,0.63 865.61,0.62 881.79,0.61 897.97,0.60 914.15,0.58 930.33,0.57 946.52,0.56 962.70,0.55 978.88,0.54 995.06,0.52 1011.24,0.51 1027.42,0.50 1043.60,0.49 1059.78,0.47 1075.97,0.46 1092.15,0.45 1108.33,0.44 1124.51,0.42 1140.69,0.41 1156.87,0.40 1173.05,0.39 1184.70,1.87 1189.15,10.01 1190.26,24.63 1190.52,40.90 1190.56,57.60 1190.55,74.40 1190.52,91.23 1190.49,108.06 1190.46,124.90 1190.43,141.74 1190.39,158.58 1190.36,175.41 1190.33,192.25 1190.30,209.09 1190.27,225.93 1190.24,242.77 1190.21,259.60 1190.17,276.44 1190.14,293.28 1190.11,310.12 1190.08,326.96 1190.05,343.79 1190.02,360.63 1189.98,377.47 1189.95,394.31 1189.92,411.15 1188.41,423.20 1180.51,427.77 1166.44,428.93 1150.80,429.22 1134.76,429.30 1118.62,429.32 1102.45,429.32 1086.28,429.32 1070.10,429.32 1053.92,429.32 1037.75,429.31 1021.57,429.31 1005.39,429.31 989.22,429.31 973.04,429.31 956.86,429.30 940.68,429.30 924.51,429.30 908.33,429.30 892.15,429.30 875.97,429.30 859.80,429.29 843.62,429.29 827.44,429.29 811.26,429.29 795.09,429.29 778.91,429.29 762.73,429.28 746.56,429.28 730.38,429.28 714.20,429.28 698.02,429.28 681.85,429.28 665.67,429.27 649.49,429.27 633.31,429.27 617.14,429.27 600.96,429.27 584.78,429.27 568.60,429.26 552.43,429.26 536.25,429.26 520.07,429.26 503.89,429.26 487.72,429.26 471.54,429.25 455.36,429.25 439.19,429.25 423.01,429.25 406.83,429.25 390.65,429.25 374.48,429.24 358.30,429.24 342.12,429.24 325.94,429.24 309.77,429.24 293.59,429.24 277.41,429.23 261.23,429.23 245.06,429.23 228.88,429.23 212.70,429.23 196.52,429.23 180.35,429.22 164.17,429.22 147.99,429.22 131.82,429.22 115.64,429.22 99.46,429.22 83.28,429.21 67.11,429.21 50.93,429.21 34.75,429.21 18.57,429.21 6.93,427.72 2.48,419.59 1.36,405.00 1.09,388.77 1.04,372.12 1.04,355.36 1.05,338.57 1.07,321.77 1.09,304.98 1.11,288.18 1.13,271.38 1.15,254.58 1.17,237.79 1.19,220.99 1.21,204.19 1.23,187.40 1.25,170.60 1.27,153.80 1.29,137.00 1.31,120.21 1.33,103.41 1.35,86.61 1.37,69.82 1.39,53.02 1.41,36.22 1.43,19.42 2.93,7.39 10.83,2.83 24.90,1.66 40.55,1.35 56.59,1.26 72.74,1.23 88.91,1.22 105.09,1.20 121.27,1.19 137.45,1.18 153.63,1.16 169.81,1.15 185.99,1.14 202.17,1.13 218.36,1.11 234.54,1.10 250.72,1.09 266.90,1.08 283.08,1.07 299.26,1.05 315.44,1.04 331.63,1.03 347.81,1.02 363.99,1.00 380.17,0.99 396.35,0.98 412.53,0.97 428.71,0.95 444.89,0.94 461.08,0.93 477.26,0.92 493.44,0.91 509.62,0.89 525.80,0.88 541.98,0.87 558.16,0.86 574.35,0.84 590.53,0.83 606.71,0.82 625.66,0.80 " fill="#d2d2d2" pointer-events="none"/><path d="M86.35,-0.35 Q98.41,-0.34 105.97,-0.33 T121.49,-0.33 137.51,-0.32 153.64,-0.32 169.81,-0.31 185.99,-0.31 202.17,-0.30 218.36,-0.29 234.54,-0.29 250.72,-0.28 266.90,-0.28 283.08,-0.27 299.26,-0.27 315.44,-0.26 331.62,-0.26 347.81,-0.25 363.99,-0.25 380.17,-0.24 396.35,-0.23 412.53,-0.23 428.71,-0.22 444.89,-0.22 461.08,-0.21 477.26,-0.21 493.44,-0.20 509.62,-0.20 525.80,-0.19 541.98,-0.19 558.16,-0.18 574.34,-0.17 590.53,-0.18 606.71,-0.20 622.89,-0.23 639.07,-0.26 655.25,-0.29 671.43,-0.32 687.61,-0.35 703.79,-0.38 719.98,-0.41 736.16,-0.44 752.34,-0.47 768.52,-0.50 784.70,-0.53 800.88,-0.56 817.06,-0.59 833.25,-0.62 849.43,-0.65 865.61,-0.68 881.79,-0.71 897.97,-0.74 914.15,-0.77 930.33,-0.80 946.51,-0.83 962.70,-0.86 978.88,-0.89 995.06,-0.92 1011.24,-0.95 1027.42,-0.98 1043.60,-1.01 1059.78,-1.04 1075.96,-1.07 1092.15,-1.10 1108.33,-1.13 1124.51,-1.16 1140.69,-1.19 1156.87,-1.22 1173.08,-1.25 1185.29,0.61 1190.50,9.46 1191.82,24.50 1192.04,40.88 1192.03,57.59 1191.96,74.40 1191.88,91.23 1191.80,108.06 1191.72,124.90 1191.63,141.74 1191.55,158.58 1191.47,175.42 1191.38,192.25 1191.33,209.09 1191.32,225.93 1191.34,242.77 1191.36,259.61 1191.38,276.44 1191.40,293.28 1191.42,310.12 1191.44,326.96 1191.46,343.80 1191.48,360.64 1191.50,377.47 1191.53,394.31 1191.54,411.17 1189.68,423.79 1181.07,429.13 1166.59,430.54 1150.84,430.83 1134.77,430.89 1118.62,430.89 1102.45,430.87 1086.28,430.85 1070.10,430.83 1053.92,430.81 1037.75,430.79 1021.57,430.77 1005.39,430.76 989.22,430.74 973.04,430.72 956.86,430.70 940.68,430.68 924.51,430.66 908.33,430.64 892.15,430.62 875.97,430.60 859.80,430.58 843.62,430.56 827.44,430.54 811.26,430.52 795.09,430.50 778.91,430.48 762.73,430.46 746.55,430.44 730.38,430.42 714.20,430.40 698.02,430.38 681.85,430.37 665.67,430.35 649.49,430.33 633.31,430.31 617.14,430.29 600.96,430.28 584.78,430.28 568.60,430.30 552.43,430.32 536.25,430.33 520.07,430.35 503.89,430.36 487.72,430.38 471.54,430.40 455.36,430.41 439.19,430.43 423.01,430.45 406.83,430.46 390.65,430.48 374.48,430.49 358.30,430.51 342.12,430.53 325.94,430.54 309.77,430.56 293.59,430.57 277.41,430.59 261.23,430.61 245.06,430.62 228.88,430.64 212.70,430.65 196.52,430.67 180.35,430.69 164.17,430.70 147.99,430.72 131.82,430.74 115.64,430.75 99.46,430.77 83.28,430.78 67.11,430.80 50.93,430.82 34.75,430.83 18.55,430.84 6.34,428.98 1.12,420.14 -0.20,405.13 -0.43,388.80 -0.43,372.12 -0.38,355.36 -0.31,338.57 -0.24,321.77 -0.17,304.97 -0.10,288.18 -0.03,271.38 0.05,254.58 0.12,237.79 0.16,220.99 0.16,204.19 0.13,187.40 0.09,170.60 0.06,153.80 0.03,137.00 -0.00,120.21 -0.03,103.41 -0.07,86.61 -0.10,69.81 -0.13,53.02 -0.16,36.22 -0.19,19.40 1.67,6.81 10.27,1.46 24.76,0.05 40.51,-0.25 56.58,-0.32 72.73,-0.34 88.91,-0.34 105.09,-0.33 121.27,-0.33 137.45,-0.32 153.63,-0.32 169.81,-0.31 185.99,-0.31 202.17,-0.30 218.36,-0.29 234.54,-0.29 250.72,-0.28 266.90,-0.28 283.08,-0.27 299.26,-0.27 315.44,-0.26 331.62,-0.26 347.81,-0.25 363.99,-0.25 380.17,-0.24 396.35,-0.23 412.53,-0.23 428.71,-0.22 444.89,-0.22 461.08,-0.21 477.26,-0.21 493.44,-0.20 509.62,-0.20 525.80,-0.19 541.98,-0.19 558.16,-0.18 574.34,-0.17 590.53,-0.18 606.71,-0.20 625.66,-0.23 636.68,-0.22 637.00,-0.11 637.27,0.09 637.45,0.36 637.54,0.68 637.53,1.02 637.40,1.33 637.19,1.58 636.90,1.75 636.57,1.83 636.24,1.79 635.94,1.65 635.70,1.42 635.54,1.13 635.49,0.80 635.54,0.47 635.70,0.17 635.94,-0.06 636.24,-0.20 636.57,-0.23 636.90,-0.16 637.19,0.01 637.40,0.26 637.52,0.57 637.54,0.91 637.45,1.23 637.27,1.50 637.00,1.71 636.69,1.81 636.52,1.84 625.66,1.84 606.71,1.84 590.53,1.84 574.35,1.86 558.16,1.89 541.98,1.92 525.80,1.95 509.62,1.98 493.44,2.01 477.26,2.04 461.08,2.07 444.90,2.10 428.71,2.13 412.53,2.16 396.35,2.19 380.17,2.22 363.99,2.25 347.81,2.28 331.63,2.31 315.45,2.34 299.26,2.37 283.08,2.40 266.90,2.43 250.72,2.46 234.54,2.49 218.36,2.52 202.18,2.55 185.99,2.58 169.81,2.61 153.63,2.64 137.45,2.68 121.27,2.71 105.09,2.74 88.91,2.77 72.74,2.80 56.60,2.85 40.58,2.96 25.05,3.27 11.40,4.20 4.20,7.98 3.05,19.45 2.98,36.22 2.91,53.02 2.84,69.82 2.77,86.62 2.69,103.41 2.62,120.21 2.55,137.01 2.48,153.80 2.41,170.60 2.33,187.40 2.26,204.19 2.22,220.99 2.22,237.79 2.25,254.59 2.29,271.38 2.32,288.18 2.35,304.98 2.38,321.77 2.42,338.57 2.45,355.36 2.50,372.11 2.61,388.74 2.93,404.87 3.84,419.04 7.52,426.46 18.60,427.57 34.75,427.59 50.93,427.60 67.11,427.62 83.28,427.64 99.46,427.66 115.64,427.68 131.82,427.70 147.99,427.72 164.17,427.74 180.35,427.76 196.52,427.78 212.70,427.80 228.88,427.82 245.06,427.84 261.23,427.86 277.41,427.88 293.59,427.90 309.77,427.92 325.94,427.94 342.12,427.96 358.30,427.98 374.48,427.99 390.65,428.01 406.83,428.03 423.01,428.05 439.19,428.07 455.36,428.09 471.54,428.11 487.72,428.13 503.89,428.15 520.07,428.17 536.25,428.19 552.43,428.21 568.60,428.23 584.78,428.25 600.96,428.26 617.14,428.25 633.31,428.24 649.49,428.22 665.67,428.20 681.85,428.19 698.02,428.17 714.20,428.15 730.38,428.14 746.56,428.12 762.73,428.11 778.91,428.09 795.09,428.07 811.26,428.06 827.44,428.04 843.62,428.03 859.80,428.01 875.97,427.99 892.15,427.98 908.33,427.96 924.51,427.95 940.68,427.93 956.86,427.91 973.04,427.90 989.22,427.88 1005.39,427.86 1021.57,427.85 1037.75,427.83 1053.93,427.82 1070.10,427.80 1086.28,427.78 1102.45,427.77 1118.62,427.75 1134.76,427.71 1150.77,427.62 1166.30,427.31 1179.95,426.40 1187.15,422.62 1188.30,411.12 1188.38,394.31 1188.46,377.47 1188.55,360.63 1188.63,343.79 1188.72,326.95 1188.80,310.12 1188.88,293.28 1188.97,276.44 1189.05,259.60 1189.13,242.76 1189.22,225.93 1189.27,209.09 1189.28,192.25 1189.26,175.41 1189.24,158.57 1189.22,141.74 1189.20,124.90 1189.18,108.06 1189.15,91.22 1189.13,74.40 1189.09,57.60 1189.00,40.93 1188.69,24.76 1187.79,10.56 1184.11,3.13 1173.03,2.02 1156.87,2.02 1140.69,2.02 1124.51,2.01 1108.33,2.01 1092.15,2.00 1075.97,2.00 1059.79,1.99 1043.60,1.98 1027.42,1.98 1011.24,1.97 995.06,1.97 978.88,1.96 962.70,1.96 946.52,1.95 930.34,1.95 914.15,1.94 897.97,1.94 881.79,1.93 865.61,1.92 849.43,1.92 833.25,1.91 817.07,1.91 800.88,1.90 784.70,1.90 768.52,1.89 752.34,1.89 736.16,1.88 719.98,1.88 703.80,1.87 687.62,1.86 671.43,1.86 655.25,1.85 639.07,1.85 622.89,1.84 606.71,1.84 590.53,1.84 574.35,1.86 558.16,1.89 541.98,1.92 525.80,1.95 509.62,1.98 493.44,2.01 477.26,2.04 461.08,2.07 444.90,2.10 428.71,2.13 412.53,2.16 396.35,2.19 380.17,2.22 363.99,2.25 347.81,2.28 331.63,2.31 315.45,2.34 299.26,2.37 283.08,2.40 266.90,2.43 250.72,2.46 234.54,2.49 218.36,2.52 202.18,2.55 186.00,2.58 169.82,2.61 153.65,2.64 137.51,2.68 121.50,2.71 105.97,2.73 92.38,2.76 86.17,2.75 85.81,2.66 85.47,2.49 85.19,2.24 84.98,1.94 84.85,1.59 84.80,1.22 84.85,0.85 84.98,0.50 85.19,0.19 85.47,-0.06 85.80,-0.23 86.17,-0.32 Z" fill="#1d1d1d" stroke="#1d1d1d" stroke-width="2" pointer-events="none"/></g><g id="77032133-097b-4e5b-3594-4ffaac0c91fb_svg" class="tl-centered-g" transform="translate(478.25, 88.27) rotate(0.00, 227.93, 181.63)"><path d="M367.61,362.56 Q355.31,362.57 347.60,362.57 T331.77,362.58 315.43,362.58 298.97,362.59 282.48,362.60 265.98,362.60 249.48,362.61 232.97,362.62 216.47,362.62 199.96,362.63 183.46,362.64 166.96,362.64 150.45,362.65 133.95,362.66 117.44,362.66 100.94,362.67 84.44,362.68 67.93,362.69 51.43,362.69 34.92,362.70 18.42,362.71 6.57,361.22 2.06,353.08 0.91,338.48 0.62,322.22 0.55,305.54 0.53,288.75 0.53,271.93 0.53,255.11 0.53,238.29 0.53,221.47 0.54,204.64 0.54,187.82 0.54,170.99 0.54,154.17 0.54,137.35 0.54,120.52 0.55,103.70 0.55,86.87 0.55,70.05 0.55,53.23 0.55,36.40 0.55,19.58 2.05,7.53 10.07,2.97 24.43,1.80 40.40,1.49 56.79,1.40 73.28,1.38 89.79,1.36 106.31,1.35 122.84,1.34 139.36,1.33 155.89,1.32 172.41,1.31 188.94,1.30 205.47,1.29 221.99,1.28 238.52,1.27 255.04,1.26 271.57,1.26 288.09,1.25 304.62,1.24 321.14,1.23 337.67,1.22 354.19,1.21 370.72,1.20 387.24,1.19 403.77,1.18 420.29,1.17 436.82,1.16 448.68,2.64 453.18,10.78 454.31,25.39 454.57,41.65 454.62,58.34 454.61,75.13 454.59,91.95 454.56,108.77 454.53,125.60 454.50,142.43 454.47,159.25 454.44,176.08 454.41,192.91 454.38,209.74 454.36,226.56 454.33,243.39 454.30,260.22 454.27,277.04 454.24,293.87 454.21,310.70 454.18,327.53 454.15,344.35 452.64,356.40 444.62,360.97 430.28,362.14 414.33,362.44 397.97,362.52 381.50,362.55 365.00,362.56 348.50,362.57 332.00,362.58 315.49,362.58 298.99,362.59 282.48,362.60 265.98,362.60 249.48,362.61 232.97,362.62 216.47,362.62 197.14,362.63 " fill="#f1f2f3" pointer-events="none"/><path d="M367.61,363.97 Q355.31,363.93 347.60,363.91 T331.77,363.87 315.43,363.82 298.97,363.78 282.48,363.74 265.98,363.70 249.48,363.66 232.97,363.64 216.47,363.67 199.97,363.73 183.46,363.78 166.96,363.84 150.45,363.89 133.95,363.95 117.44,364.00 100.94,364.06 84.44,364.11 67.93,364.17 51.43,364.22 34.92,364.28 18.40,364.33 5.99,362.48 0.71,353.63 -0.63,338.61 -0.87,322.24 -0.88,305.54 -0.84,288.75 -0.78,271.94 -0.72,255.11 -0.65,238.29 -0.59,221.47 -0.53,204.64 -0.49,187.82 -0.52,170.99 -0.58,154.17 -0.64,137.35 -0.70,120.52 -0.76,103.70 -0.82,86.87 -0.88,70.05 -0.94,53.23 -1.00,36.40 -1.06,19.56 0.78,6.95 9.52,1.61 24.29,0.23 40.37,-0.04 56.78,-0.08 73.27,-0.06 89.79,-0.02 106.31,0.01 122.84,0.05 139.36,0.09 155.89,0.13 172.41,0.17 188.94,0.21 205.46,0.25 221.99,0.26 238.52,0.23 255.04,0.17 271.57,0.11 288.09,0.05 304.62,-0.00 321.14,-0.06 337.67,-0.12 354.19,-0.18 370.72,-0.24 387.24,-0.29 403.77,-0.35 420.29,-0.41 436.84,-0.46 449.27,1.38 454.53,10.23 455.86,25.26 456.07,41.63 456.05,58.33 455.98,75.13 455.90,91.95 455.81,108.77 455.72,125.60 455.62,142.43 455.53,159.25 455.47,176.08 455.48,192.91 455.51,209.74 455.54,226.56 455.57,243.39 455.61,260.22 455.64,277.05 455.67,293.87 455.71,310.70 455.74,327.53 455.77,344.38 453.91,356.99 445.18,362.32 430.42,363.71 414.36,363.97 397.97,364.00 381.50,363.98 365.00,363.95 348.50,363.91 332.00,363.87 315.49,363.82 298.99,363.78 282.49,363.74 265.98,363.70 249.48,363.66 232.97,363.64 216.47,363.67 197.14,363.73 185.89,363.73 185.55,363.61 185.26,363.40 185.06,363.10 184.96,362.76 184.98,362.40 185.12,362.07 185.35,361.79 185.65,361.61 186.00,361.53 186.36,361.57 186.68,361.72 186.94,361.97 187.11,362.28 187.17,362.64 187.11,362.99 186.94,363.31 186.68,363.55 186.36,363.70 186.00,363.74 185.65,363.66 185.35,363.48 185.12,363.21 184.98,362.87 184.96,362.52 185.06,362.17 185.26,361.88 185.55,361.66 185.88,361.55 186.06,361.52 197.14,361.54 216.47,361.58 232.97,361.59 249.48,361.56 265.98,361.51 282.48,361.45 298.99,361.40 315.49,361.34 332.00,361.29 348.50,361.23 365.00,361.18 381.49,361.12 397.96,361.04 414.30,360.91 430.15,360.57 444.07,359.61 451.38,355.82 452.54,344.33 452.62,327.52 452.72,310.70 452.81,293.87 452.90,277.04 452.99,260.22 453.08,243.39 453.17,226.56 453.26,209.73 453.35,192.91 453.41,176.08 453.41,159.25 453.38,142.42 453.34,125.60 453.31,108.77 453.28,91.94 453.24,75.13 453.19,58.34 453.08,41.68 452.76,25.52 451.83,11.33 448.09,3.90 436.80,2.78 420.29,2.75 403.77,2.71 387.24,2.67 370.72,2.63 354.19,2.59 337.67,2.55 321.14,2.52 304.62,2.48 288.09,2.44 271.57,2.40 255.04,2.36 238.52,2.32 221.99,2.31 205.47,2.34 188.94,2.40 172.42,2.46 155.89,2.51 139.37,2.57 122.84,2.63 106.32,2.69 89.79,2.75 73.28,2.81 56.79,2.89 40.43,3.02 24.57,3.36 10.63,4.32 3.31,8.12 2.17,19.60 2.11,36.40 2.05,53.23 1.98,70.05 1.92,86.88 1.86,103.70 1.79,120.52 1.73,137.35 1.66,154.17 1.60,170.99 1.57,187.82 1.60,204.64 1.66,221.47 1.72,238.29 1.78,255.11 1.84,271.93 1.90,288.75 1.98,305.53 2.12,322.19 2.46,338.35 3.41,352.54 7.16,359.96 18.44,361.08 34.92,361.12 51.43,361.16 67.93,361.20 84.44,361.24 100.94,361.29 117.44,361.33 133.95,361.37 150.45,361.41 166.96,361.45 183.46,361.49 199.96,361.53 216.47,361.58 232.97,361.59 249.48,361.56 265.98,361.51 282.48,361.45 298.97,361.40 315.43,361.34 331.77,361.29 347.60,361.23 361.46,361.18 367.78,361.17 368.10,361.25 368.40,361.41 368.66,361.63 368.85,361.91 368.97,362.23 369.01,362.56 368.97,362.90 368.85,363.21 368.66,363.49 368.40,363.71 368.10,363.87 367.78,363.95 Z" fill="#c6cbd1" stroke="#c6cbd1" stroke-width="2" pointer-events="none"/></g><text font-size="28px" font-family="Source Sans Pro" font-weight="normal" line-height="28px" letter-spacing="-0.03em" text-align="left" dominant-baseline="mathematical" alignment-baseline="mathematical" text-anchor="start" fill="#1d1d1d" transform="translate(48.54, 251.16) rotate(0.00, 51.00, 19.00)"><tspan y="14px" x="4">Einlesen
</tspan></text><text font-size="28px" font-family="Source Sans Pro" font-weight="normal" line-height="28px" letter-spacing="-0.03em" text-align="left" dominant-baseline="mathematical" alignment-baseline="mathematical" text-anchor="start" fill="#1d1d1d" transform="translate(254.25, 248.27) rotate(0.00, 68.50, 19.00)"><tspan y="14px" x="4">Aufbereiten
</tspan></text><text font-size="28px" font-family="Source Sans Pro" font-weight="normal" line-height="28px" letter-spacing="-0.03em" text-align="left" dominant-baseline="mathematical" alignment-baseline="mathematical" text-anchor="start" fill="#1d1d1d" transform="translate(510.25, 248.27) rotate(0.00, 89.00, 19.00)"><tspan y="14px" x="4">Transformieren
</tspan></text><text font-size="28px" font-family="Source Sans Pro" font-weight="normal" line-height="28px" letter-spacing="-0.03em" text-align="left" dominant-baseline="mathematical" alignment-baseline="mathematical" text-anchor="start" fill="#1d1d1d" transform="translate(702.25, 152.27) rotate(0.00, 73.50, 19.00)"><tspan y="14px" x="4">Visualisieren
</tspan></text><text font-size="28px" font-family="Source Sans Pro" font-weight="normal" line-height="28px" letter-spacing="-0.03em" text-align="left" dominant-baseline="mathematical" alignment-baseline="mathematical" text-anchor="start" fill="#1d1d1d" transform="translate(670.25, 376.27) rotate(0.00, 69.50, 19.00)"><tspan y="14px" x="4">Modellieren
</tspan></text><text font-size="28px" font-family="Source Sans Pro" font-weight="normal" line-height="28px" letter-spacing="-0.03em" text-align="left" dominant-baseline="mathematical" alignment-baseline="mathematical" text-anchor="start" fill="#1d1d1d" transform="translate(990.25, 248.27) rotate(0.00, 92.50, 19.00)"><tspan y="14px" x="4">Kommunizieren
</tspan></text><g id="c52721b3-5196-4725-30b7-2b5119ac3d5d_svg" class="tl-centered-g" transform="translate(155.73, 269.52) rotate(0.00, 43.73, 0.50)"><defs><mask id="c52721b3-5196-4725-30b7-2b5119ac3d5d_clip"><rect x="-100" y="-100" width="287.47" height="201" fill="white"/><rect x="43.73" y="0.35" width="0" height="0" rx="2.73" ry="2.73" fill="black" opacity="1"/></mask></defs><g pointer-events="none" opacity="1" mask=""><path d="M-0.01,-0.27 Q21.36,-0.37 32.04,-0.43 T53.41,-0.55 74.78,-0.69 85.59,-0.74 85.82,-0.66 86.02,-0.52 86.16,-0.31 86.23,-0.07 86.22,0.17 86.13,0.41 85.97,0.60 85.76,0.73 85.52,0.78 85.27,0.76 85.05,0.65 84.86,0.48 84.75,0.27 84.70,0.02 84.74,-0.22 84.86,-0.44 85.04,-0.61 85.26,-0.72 85.51,-0.75 85.75,-0.70 85.96,-0.57 86.12,-0.38 86.22,-0.15 86.23,0.09 86.17,0.33 86.03,0.54 85.83,0.69 85.60,0.77 85.48,0.79 74.79,0.89 53.43,1.09 32.06,1.30 10.69,1.53 -0.11,1.64 -0.33,1.58 -0.54,1.48 -0.71,1.33 -0.84,1.14 -0.92,0.93 -0.95,0.70 -0.93,0.47 -0.85,0.25 -0.72,0.06 -0.55,-0.09 -0.34,-0.20 -0.12,-0.26 Z" fill="#1d1d1d" stroke="#1d1d1d" stroke-width="2.11" stroke-dasharray="none" stroke-dashoffset="none" stroke-linecap="round" stroke-linejoin="round" pointer-events="stroke"/><g><path d="M 73.55,-7.890449365298899 L 87.47,0 73.67,8.109052840712982" fill="none" stroke="#1d1d1d" stroke-width="4.23" stroke-linecap="round" stroke-linejoin="round" pointer-events="none"/></g></g></g><g id="abba6c6a-b4c2-44c6-3502-fea9e2144433_svg" class="tl-centered-g" transform="translate(391.80, 267.67) rotate(0.00, 55.23, 0.50)"><defs><mask id="abba6c6a-b4c2-44c6-3502-fea9e2144433_clip"><rect x="-100" y="-100" width="310.45" height="201" fill="white"/><rect x="55.22" y="0.22" width="0" height="0" rx="3.45" ry="3.45" fill="black" opacity="1"/></mask></defs><g pointer-events="none" opacity="1" mask=""><path d="M-0.00,-0.42 Q27.11,-0.46 40.67,-0.48 T67.78,-0.54 94.89,-0.62 108.55,-0.64 108.76,-0.57 108.93,-0.45 109.05,-0.27 109.10,-0.07 109.09,0.15 109.02,0.35 108.88,0.51 108.70,0.62 108.49,0.67 108.28,0.64 108.08,0.55 107.93,0.41 107.83,0.22 107.79,0.01 107.83,-0.20 107.92,-0.39 108.08,-0.54 108.27,-0.63 108.48,-0.65 108.69,-0.60 108.87,-0.50 109.01,-0.33 109.09,-0.14 109.10,0.08 109.05,0.28 108.93,0.46 108.76,0.59 108.56,0.66 108.45,0.68 94.90,0.75 67.78,0.90 40.67,1.06 13.56,1.25 -0.10,1.33 -0.31,1.28 -0.49,1.18 -0.65,1.04 -0.77,0.87 -0.85,0.67 -0.88,0.46 -0.85,0.25 -0.78,0.06 -0.66,-0.12 -0.50,-0.26 -0.31,-0.36 -0.11,-0.41 Z" fill="#1d1d1d" stroke="#1d1d1d" stroke-width="2.11" stroke-dasharray="none" stroke-dashoffset="none" stroke-linecap="round" stroke-linejoin="round" pointer-events="stroke"/><g><path d="M 96.56,-7.942222229157248 L 110.45,0 96.62,8.05763900947875" fill="none" stroke="#1d1d1d" stroke-width="4.23" stroke-linecap="round" stroke-linejoin="round" pointer-events="none"/></g></g></g><g id="e05c536a-518f-420d-06ea-a22dc7a1f454_svg" class="tl-centered-g" transform="translate(577.80, 167.32) rotate(0.00, 49.12, 31.44)"><defs><mask id="e05c536a-518f-420d-06ea-a22dc7a1f454_clip"><rect x="-100" y="-100" width="298.24" height="262.88" fill="white"/><rect x="34.95" y="9.93" width="0" height="0" rx="4" ry="4" fill="black" opacity="1"/></mask></defs><g pointer-events="none" opacity="1" mask=""><path d="M-1.72,62.58 Q-1.11,56.13 -0.05,52.29 T3.05,43.56 8.41,33.26 16.48,22.59 27.19,12.86 39.90,5.21 53.54,0.31 66.78,-1.82 78.44,-1.72 87.67,-0.34 94.80,1.59 98.32,2.83 98.88,3.29 99.26,3.89 99.43,4.59 99.37,5.31 99.08,5.97 98.60,6.50 97.97,6.85 97.27,6.98 96.56,6.88 95.91,6.56 95.41,6.05 95.09,5.40 95.00,4.69 95.14,3.98 95.50,3.36 96.03,2.88 96.69,2.60 97.41,2.55 98.11,2.73 98.71,3.12 99.16,3.68 99.40,4.35 99.42,5.07 99.20,5.76 98.78,6.34 98.20,6.75 97.51,6.96 96.79,6.94 96.43,6.87 93.52,5.90 86.96,4.09 78.36,2.76 67.44,2.61 55.01,4.53 42.19,9.07 30.18,16.19 20.05,25.29 12.40,35.32 7.29,45.03 4.34,53.28 2.52,60.04 1.65,63.38 1.49,63.76 1.23,64.09 0.91,64.35 0.53,64.53 0.12,64.60 -0.30,64.58 -0.70,64.46 -1.05,64.25 -1.35,63.96 -1.57,63.60 -1.70,63.21 -1.73,62.79 Z" fill="#1d1d1d" stroke="#1d1d1d" stroke-width="0" stroke-dasharray="none" stroke-dashoffset="none" stroke-linecap="round" stroke-linejoin="round" pointer-events="none"/><g><path d="M 87.50,-6.7085902128225605 L 98.24,5.16 82.59,8.51830543219304" fill="none" stroke="#1d1d1d" stroke-width="4.23" stroke-linecap="round" stroke-linejoin="round" pointer-events="none"/></g></g></g><g id="aaf3bde7-b235-4e08-33d8-134a043833e5_svg" class="tl-centered-g" transform="translate(825.32, 219.15) rotate(0.00, 34.43, 78.72)"><defs><mask id="aaf3bde7-b235-4e08-33d8-134a043833e5_clip"><rect x="-100" y="-100" width="268.85" height="357.44" fill="white"/><rect x="66.47" y="90.11" width="0" height="0" rx="4" ry="4" fill="black" opacity="1"/></mask></defs><g pointer-events="none" opacity="1" mask=""><path d="M38.80,-1.26 Q42.37,1.28 44.50,3.45 T49.81,9.50 56.94,19.73 64.58,35.85 69.69,59.41 67.35,89.51 56.26,117.66 41.26,136.68 27.22,147.88 16.23,153.99 8.72,157.10 3.63,158.76 1.08,159.42 0.36,159.37 -0.30,159.09 -0.84,158.61 -1.19,157.99 -1.33,157.28 -1.24,156.57 -0.92,155.92 -0.41,155.41 0.23,155.09 0.94,154.99 1.65,155.12 2.27,155.47 2.76,156.01 3.04,156.67 3.10,157.38 2.93,158.08 2.55,158.69 1.99,159.14 1.32,159.39 0.60,159.41 -0.09,159.20 -0.67,158.79 -1.10,158.21 -1.31,157.52 -1.29,156.80 -1.05,156.13 -0.60,155.56 0.00,155.17 0.34,155.03 2.33,154.45 7.05,152.93 14.12,150.02 24.51,144.32 37.84,133.83 52.18,115.90 62.94,89.15 65.35,60.36 60.55,37.80 53.28,22.34 46.47,12.50 41.37,6.69 37.91,2.93 36.35,1.11 36.12,0.77 35.98,0.38 35.94,-0.03 35.99,-0.43 36.15,-0.82 36.38,-1.15 36.70,-1.42 37.06,-1.60 37.46,-1.69 37.87,-1.69 38.27,-1.58 38.63,-1.39 Z" fill="#1d1d1d" stroke="#1d1d1d" stroke-width="0" stroke-dasharray="none" stroke-dashoffset="none" stroke-linecap="round" stroke-linejoin="round" pointer-events="none"/><g><path d="M 15.60,160.96475847559623 L 0,157.44 10.85,145.6863865525924" fill="none" stroke="#1d1d1d" stroke-width="4.23" stroke-linecap="round" stroke-linejoin="round" pointer-events="none"/></g></g></g><g id="b4eddc03-9feb-4763-29cc-d655e876e560_svg" class="tl-centered-g" transform="translate(569.46, 302.70) rotate(0.00, 37.97, 44.50)"><defs><mask id="b4eddc03-9feb-4763-29cc-d655e876e560_clip"><rect x="-100" y="-100" width="275.94" height="288.99" fill="white"/><rect x="13.56" y="65.65" width="0" height="0" rx="4" ry="4" fill="black" opacity="1"/></mask></defs><g pointer-events="none" opacity="1" mask=""><path d="M76.24,89.08 Q70.45,90.70 66.73,90.97 T58.02,90.92 47.16,89.20 35.10,84.91 23.12,77.57 12.59,67.33 4.65,54.96 -0.15,41.73 -1.93,29.01 -1.43,17.96 0.30,9.35 2.51,2.81 3.89,-0.42 4.37,-0.94 5.00,-1.29 5.71,-1.41 6.42,-1.31 7.06,-0.98 7.56,-0.46 7.87,0.19 7.96,0.90 7.81,1.60 7.45,2.22 6.91,2.69 6.24,2.97 5.53,3.02 4.83,2.83 4.23,2.44 3.79,1.87 3.55,1.19 3.54,0.47 3.77,-0.21 4.19,-0.79 4.78,-1.20 5.47,-1.40 6.19,-1.37 6.86,-1.11 7.41,-0.65 7.79,-0.04 7.96,0.66 7.89,1.37 7.79,1.73 6.72,4.35 4.68,10.30 3.04,18.22 2.51,28.44 4.08,40.25 8.44,52.58 15.74,64.15 25.47,73.78 36.61,80.70 47.86,84.77 58.02,86.44 66.18,86.51 72.66,86.02 75.86,85.77 76.26,85.80 76.64,85.92 76.98,86.13 77.26,86.41 77.47,86.76 77.59,87.14 77.61,87.54 77.53,87.93 77.37,88.30 77.12,88.61 76.80,88.86 76.44,89.02 Z" fill="#1d1d1d" stroke="#1d1d1d" stroke-width="0" stroke-dasharray="none" stroke-dashoffset="none" stroke-linecap="round" stroke-linejoin="round" pointer-events="none"/><g><path d="M -6.335103812698037,10.043425163504473 L 6.12,0 8.59,15.808148890321156" fill="none" stroke="#1d1d1d" stroke-width="4.23" stroke-linecap="round" stroke-linejoin="round" pointer-events="none"/></g></g></g><g id="10b588fc-0ec3-4c92-097d-82374ac40f8d_svg" class="tl-centered-g" transform="translate(934.11, 268.88) rotate(0.00, 22.82, 0.50)"><defs><mask id="10b588fc-0ec3-4c92-097d-82374ac40f8d_clip"><rect x="-100" y="-100" width="245.63" height="201" fill="white"/><rect x="22.81" y="0.08" width="0" height="0" rx="2" ry="2" fill="black" opacity="1"/></mask></defs><g pointer-events="none" opacity="1" mask=""><path d="M-0.00,-0.76 Q10.90,-0.73 16.36,-0.72 T27.27,-0.72 38.17,-0.72 43.74,-0.71 43.97,-0.63 44.15,-0.49 44.29,-0.30 44.35,-0.07 44.34,0.16 44.25,0.38 44.10,0.56 43.90,0.68 43.67,0.73 43.44,0.71 43.23,0.61 43.05,0.45 42.94,0.24 42.90,0.01 42.94,-0.22 43.05,-0.43 43.22,-0.59 43.43,-0.69 43.67,-0.72 43.90,-0.67 44.10,-0.55 44.25,-0.37 44.34,-0.15 44.35,0.08 44.29,0.31 44.16,0.50 43.97,0.65 43.75,0.72 43.63,0.74 38.18,0.78 27.27,0.85 16.36,0.94 5.46,1.04 -0.11,1.09 -0.32,1.03 -0.52,0.93 -0.69,0.78 -0.82,0.60 -0.90,0.39 -0.92,0.17 -0.90,-0.05 -0.82,-0.26 -0.69,-0.44 -0.53,-0.59 -0.33,-0.69 -0.11,-0.75 Z" fill="#1d1d1d" stroke="#1d1d1d" stroke-width="2.11" stroke-dasharray="none" stroke-dashoffset="none" stroke-linecap="round" stroke-linejoin="round" pointer-events="stroke"/><g><path d="M 32.42,-7.555925227118881 L 45.63,0 32.48,7.654074772881118" fill="none" stroke="#1d1d1d" stroke-width="4.23" stroke-linecap="round" stroke-linejoin="round" pointer-events="none"/></g></g></g><text font-size="28px" font-family="Source Sans Pro" font-weight="normal" line-height="28px" letter-spacing="-0.03em" text-align="left" dominant-baseline="mathematical" alignment-baseline="mathematical" text-anchor="start" fill="#1d1d1d" transform="translate(32.02, 16.00) rotate(0.00, 95.50, 19.00)"><tspan y="14px" x="4">Problemstellung
</tspan></text></svg>